<svg width="416" height="111" viewBox="0 0 416 111" fill="none" xmlns="http://www.w3.org/2000/svg">
<path d="M63.325 108.634V2.19983H90.1149C95.6785 2.19983 99.831 3.28836 102.573 5.46542C105.314 7.64248 107.108 10.8274 107.955 15.0203C108.842 19.2131 109.285 24.3333 109.285 30.3807C109.285 36.6296 108.64 41.5482 107.35 45.1363C106.1 48.6841 103.52 51.0627 99.6093 52.2722C101.464 52.5947 103.016 53.3607 104.266 54.5702C105.516 55.7394 106.523 57.473 107.289 59.771C108.055 62.0287 108.6 64.9516 108.922 68.5397C109.285 72.0875 109.467 76.4416 109.467 81.602C109.467 82.0052 109.467 83.134 109.467 84.9886C109.467 86.8431 109.467 89.0403 109.467 91.5802C109.507 94.0798 109.547 96.5794 109.587 99.079C109.628 101.579 109.688 103.715 109.769 105.489C109.85 107.263 109.95 108.311 110.071 108.634H93.8643C93.7433 108.432 93.6425 107.404 93.5619 105.55C93.5216 103.655 93.4611 101.256 93.3805 98.3533C93.3402 95.4506 93.2998 92.3261 93.2595 88.9799C93.2595 85.6336 93.2595 82.3479 93.2595 79.1226C93.2595 75.857 93.2595 72.9744 93.2595 70.4748C93.2595 67.2899 93.0176 64.8911 92.5338 63.2785C92.0904 61.6255 91.2437 60.4765 89.9939 59.8314C88.7845 59.1864 87.0307 58.8034 84.7327 58.6824L79.532 58.3801V108.634H63.325ZM79.5924 45.8015H86.0631C88.0386 45.8015 89.5303 45.358 90.5382 44.4711C91.5864 43.5841 92.2919 41.9513 92.6548 39.5727C93.0579 37.1941 93.2595 33.7672 93.2595 29.2921V28.6269C93.2595 24.8775 93.0781 21.9949 92.7153 19.9792C92.3524 17.9634 91.5864 16.5725 90.4173 15.8065C89.2884 15.0405 87.5145 14.6574 85.0955 14.6574H79.5924V45.8015Z" fill="white"/>
<path d="M0.916016 108.634L16.095 2.19983H37.5027L53.6492 108.634H38.5308L35.9909 89.6451H18.8163L16.5183 108.634H0.916016ZM20.3886 76.6432H34.2976L27.1617 23.1843H26.9198L20.3886 76.6432Z" fill="white"/>
<path d="M400.422 49.8696C397.014 49.8696 394.383 48.8991 392.529 46.9582C390.717 45.0172 389.811 42.2784 389.811 38.7415V20.3673H383.471V14.6092H384.765C386.318 14.6092 387.547 14.1347 388.453 13.1858C389.358 12.2369 389.811 10.9861 389.811 9.43332V6.58661H395.828V14.6092H403.657V20.3673H395.828V38.5474C395.828 39.712 396.001 40.7256 396.346 41.5882C396.734 42.4509 397.359 43.141 398.222 43.6586C399.085 44.133 400.228 44.3703 401.651 44.3703C401.953 44.3703 402.32 44.3487 402.751 44.3056C403.225 44.2624 403.657 44.2193 404.045 44.1762V49.4814C403.484 49.6108 402.859 49.6971 402.169 49.7402C401.479 49.8265 400.896 49.8696 400.422 49.8696Z" fill="white"/>
<path d="M363.445 50.2578C360.037 50.2578 356.996 49.4599 354.322 47.864C351.691 46.2681 349.621 44.0899 348.111 41.3295C346.601 38.569 345.847 35.4635 345.847 32.013C345.847 28.5193 346.601 25.4138 348.111 22.6965C349.621 19.9791 351.691 17.8225 354.322 16.2267C356.996 14.6308 360.037 13.8328 363.445 13.8328C365.731 13.8328 367.866 14.2426 369.85 15.0621C371.834 15.8816 373.581 16.9815 375.09 18.3617C376.6 19.7419 377.7 21.3594 378.39 23.214L373.02 25.802C372.2 23.9904 370.95 22.5239 369.267 21.4025C367.585 20.2379 365.644 19.6556 363.445 19.6556C361.331 19.6556 359.412 20.1948 357.686 21.2731C356.004 22.3514 354.667 23.8179 353.675 25.6726C352.683 27.5272 352.187 29.6623 352.187 32.0777C352.187 34.4068 352.683 36.5203 353.675 38.4181C354.667 40.2728 356.004 41.7392 357.686 42.8175C359.412 43.8958 361.331 44.435 363.445 44.435C365.644 44.435 367.585 43.8743 369.267 42.7528C370.95 41.5883 372.2 40.0571 373.02 38.1593L378.39 40.8766C377.7 42.6881 376.6 44.3056 375.09 45.729C373.581 47.1092 371.834 48.209 369.85 49.0286C367.866 49.8481 365.731 50.2578 363.445 50.2578Z" fill="white"/>
<path d="M323.574 50.2578C320.21 50.2578 317.212 49.4599 314.581 47.864C311.95 46.2681 309.88 44.0899 308.37 41.3295C306.86 38.5259 306.105 35.3988 306.105 31.9483C306.105 28.4546 306.839 25.3491 308.305 22.6318C309.815 19.9144 311.842 17.7794 314.387 16.2267C316.975 14.6308 319.865 13.8328 323.056 13.8328C325.644 13.8328 327.93 14.3073 329.914 15.2562C331.942 16.162 333.645 17.4128 335.025 19.0087C336.449 20.5614 337.527 22.3514 338.26 24.3786C339.037 26.3627 339.425 28.433 339.425 30.5896C339.425 31.0641 339.382 31.6032 339.296 32.2071C339.252 32.7678 339.188 33.3069 339.101 33.8245H310.505V28.6487H335.608L332.761 30.9778C333.149 28.7349 332.934 26.7293 332.114 24.9609C331.295 23.1925 330.087 21.7907 328.491 20.7555C326.895 19.7203 325.084 19.2028 323.056 19.2028C321.029 19.2028 319.174 19.7203 317.492 20.7555C315.81 21.7907 314.495 23.2787 313.546 25.2197C312.64 27.1175 312.273 29.3819 312.446 32.013C312.273 34.5578 312.662 36.8006 313.61 38.7416C314.602 40.6394 315.983 42.1274 317.751 43.2057C319.563 44.2409 321.525 44.7585 323.639 44.7585C325.968 44.7585 327.93 44.2193 329.526 43.141C331.122 42.0627 332.416 40.6825 333.408 39.0004L338.454 41.5883C337.764 43.1842 336.686 44.6507 335.22 45.9877C333.796 47.2817 332.093 48.3169 330.108 49.0933C328.167 49.8696 325.989 50.2578 323.574 50.2578Z" fill="white"/>
<path d="M296.993 49.8696C293.586 49.8696 290.955 48.8991 289.1 46.9582C287.289 45.0172 286.383 42.2784 286.383 38.7415V20.3673H280.042V14.6092H281.336C282.889 14.6092 284.118 14.1347 285.024 13.1858C285.93 12.2369 286.383 10.9861 286.383 9.43332V6.58661H292.4V14.6092H300.228V20.3673H292.4V38.5474C292.4 39.712 292.572 40.7256 292.917 41.5882C293.306 42.4509 293.931 43.141 294.794 43.6586C295.656 44.133 296.799 44.3703 298.223 44.3703C298.525 44.3703 298.891 44.3487 299.322 44.3056C299.797 44.2624 300.228 44.2193 300.616 44.1762V49.4814C300.056 49.6108 299.43 49.6971 298.74 49.7402C298.05 49.8265 297.468 49.8696 296.993 49.8696Z" fill="white"/>
<path d="M267.472 49.4814V14.6092H273.489V49.4814H267.472ZM267.472 9.04514V1.28137H273.489V9.04514H267.472Z" fill="white"/>
<path d="M229.942 49.4814V0.505005H235.959V21.4025L234.859 20.8202C235.721 18.6205 237.102 16.9167 238.999 15.709C240.94 14.4582 243.205 13.8328 245.793 13.8328C248.294 13.8328 250.516 14.3935 252.457 15.5149C254.441 16.6364 255.993 18.1891 257.115 20.1732C258.279 22.1573 258.862 24.4001 258.862 26.9018V49.4814H252.78V28.8427C252.78 26.9018 252.413 25.2628 251.68 23.9257C250.99 22.5886 250.02 21.5534 248.769 20.8202C247.518 20.0438 246.073 19.6556 244.434 19.6556C242.838 19.6556 241.393 20.0438 240.099 20.8202C238.805 21.5534 237.792 22.6102 237.058 23.9904C236.325 25.3275 235.959 26.9449 235.959 28.8427V49.4814H229.942Z" fill="white"/>
<path d="M207.133 50.2578C203.726 50.2578 200.685 49.4599 198.011 47.864C195.38 46.2681 193.309 44.0899 191.8 41.3295C190.29 38.569 189.535 35.4635 189.535 32.013C189.535 28.5193 190.29 25.4138 191.8 22.6965C193.309 19.9791 195.38 17.8225 198.011 16.2267C200.685 14.6308 203.726 13.8328 207.133 13.8328C209.419 13.8328 211.554 14.2426 213.538 15.0621C215.522 15.8816 217.269 16.9815 218.779 18.3617C220.288 19.7419 221.388 21.3594 222.078 23.214L216.708 25.802C215.889 23.9904 214.638 22.5239 212.956 21.4025C211.274 20.2379 209.333 19.6556 207.133 19.6556C205.02 19.6556 203.1 20.1948 201.375 21.2731C199.693 22.3514 198.356 23.8179 197.364 25.6726C196.372 27.5272 195.876 29.6623 195.876 32.0777C195.876 34.4068 196.372 36.5203 197.364 38.4181C198.356 40.2728 199.693 41.7392 201.375 42.8175C203.1 43.8958 205.02 44.435 207.133 44.435C209.333 44.435 211.274 43.8743 212.956 42.7528C214.638 41.5883 215.889 40.0571 216.708 38.1593L222.078 40.8766C221.388 42.6881 220.288 44.3056 218.779 45.729C217.269 47.1092 215.522 48.209 213.538 49.0286C211.554 49.8481 209.419 50.2578 207.133 50.2578Z" fill="white"/>
<path d="M168.34 49.4814V14.6091H174.227V21.0142L173.58 20.1085C174.4 18.1244 175.65 16.6579 177.333 15.709C179.015 14.717 181.064 14.2209 183.479 14.2209H185.614V19.9144H182.573C180.115 19.9144 178.131 20.6908 176.621 22.2435C175.111 23.7531 174.357 25.9097 174.357 28.7133V49.4814H168.34Z" fill="white"/>
<path d="M141.348 50.2578C139.062 50.2578 137.035 49.8481 135.266 49.0286C133.541 48.1659 132.182 47.0013 131.19 45.5349C130.198 44.0252 129.702 42.3 129.702 40.359C129.702 38.5043 130.09 36.8438 130.867 35.3773C131.686 33.8676 132.937 32.5953 134.619 31.5601C136.344 30.5249 138.501 29.7917 141.089 29.3604L154.029 27.2253V32.2718L142.448 34.2127C140.205 34.6009 138.566 35.3126 137.531 36.3477C136.539 37.3829 136.043 38.6553 136.043 40.1649C136.043 41.5883 136.603 42.7744 137.725 43.7233C138.889 44.6722 140.334 45.1467 142.059 45.1467C144.259 45.1467 146.157 44.6938 147.753 43.788C149.392 42.8391 150.664 41.5667 151.57 39.9708C152.519 38.3749 152.993 36.6065 152.993 34.6656V25.802C152.993 23.9041 152.282 22.373 150.858 21.2084C149.478 20.0007 147.645 19.3969 145.359 19.3969C143.375 19.3969 141.607 19.9144 140.054 20.9496C138.544 21.9416 137.423 23.2787 136.69 24.9609L131.449 22.2436C132.096 20.6477 133.131 19.2243 134.555 17.9735C135.978 16.6795 137.638 15.6659 139.536 14.9327C141.434 14.1994 143.418 13.8328 145.488 13.8328C148.163 13.8328 150.513 14.3504 152.541 15.3856C154.568 16.3776 156.142 17.7794 157.264 19.5909C158.428 21.3594 159.01 23.4297 159.01 25.802V49.4814H153.123V42.8822L154.223 43.2704C153.489 44.6507 152.497 45.8583 151.247 46.8935C149.996 47.9287 148.529 48.7482 146.847 49.352C145.165 49.9559 143.332 50.2578 141.348 50.2578Z" fill="white"/>
<path d="M403.959 111C402.392 111 400.942 110.749 399.611 110.246C398.28 109.743 397.127 109.063 396.151 108.205C395.175 107.347 394.406 106.371 393.844 105.277L396.24 103.99C396.89 105.262 397.866 106.312 399.168 107.14C400.499 107.968 402.081 108.383 403.915 108.383C405.394 108.383 406.769 108.087 408.041 107.495C409.312 106.933 410.348 106.046 411.146 104.833C411.974 103.65 412.388 102.157 412.388 100.353V94.3634L412.876 94.9845C412.048 96.8182 410.791 98.2675 409.105 99.3322C407.419 100.367 405.541 100.885 403.471 100.885C401.282 100.885 399.316 100.353 397.571 99.2878C395.826 98.2231 394.45 96.7887 393.445 94.9845C392.469 93.1803 391.981 91.184 391.981 88.9953C391.981 86.8067 392.469 84.8251 393.445 83.0505C394.45 81.2463 395.811 79.8119 397.526 78.7471C399.271 77.6824 401.253 77.15 403.471 77.15C405.541 77.15 407.405 77.6676 409.061 78.7028C410.717 79.7084 411.989 81.0689 412.876 82.7843L412.388 83.6272V77.6824H415.05V100.353C415.05 102.393 414.577 104.212 413.631 105.809C412.684 107.436 411.368 108.708 409.682 109.625C408.026 110.542 406.118 111 403.959 111ZM403.56 98.2231C405.216 98.2231 406.695 97.809 407.996 96.9809C409.327 96.1528 410.377 95.0437 411.146 93.6536C411.915 92.2339 412.3 90.6812 412.3 88.9953C412.3 87.3095 411.915 85.7715 411.146 84.3814C410.377 82.9913 409.327 81.8822 407.996 81.0541C406.695 80.226 405.216 79.8119 403.56 79.8119C401.874 79.8119 400.366 80.226 399.035 81.0541C397.704 81.8822 396.669 82.9913 395.929 84.3814C395.19 85.7715 394.82 87.3095 394.82 88.9953C394.82 90.6812 395.19 92.2339 395.929 93.6536C396.669 95.0437 397.689 96.1528 398.99 96.9809C400.321 97.809 401.844 98.2231 403.56 98.2231Z" fill="white"/>
<path d="M367.568 101.24V77.6824H370.23V82.4294L369.565 82.2519C370.097 80.6844 371.043 79.4422 372.404 78.5253C373.794 77.6085 375.406 77.15 377.24 77.15C378.866 77.15 380.345 77.5197 381.676 78.2591C383.007 78.9985 384.072 80.0337 384.87 81.3646C385.669 82.666 386.068 84.1596 386.068 85.8454V101.24H383.406V86.5996C383.406 85.18 383.125 83.9673 382.563 82.9618C382.001 81.9266 381.218 81.1428 380.212 80.6104C379.236 80.0485 378.112 79.7675 376.84 79.7675C375.509 79.7675 374.341 80.0781 373.335 80.6992C372.33 81.3203 371.561 82.178 371.029 83.2723C370.496 84.3666 370.23 85.6236 370.23 87.0433V101.24H367.568Z" fill="white"/>
<path d="M357.604 101.24V77.6825H360.265V101.24H357.604ZM357.604 73.0686V68.1885H360.265V73.0686H357.604Z" fill="white"/>
<path d="M342.57 101.24V77.6824H345.232V82.0744L344.744 81.6752C345.246 80.3442 346.104 79.2943 347.317 78.5253C348.559 77.7563 350.023 77.3718 351.709 77.3718H353.217V80.0337H351.398C349.476 80.0337 347.967 80.6548 346.873 81.897C345.779 83.1096 345.232 84.7511 345.232 86.8214V101.24H342.57Z" fill="white"/>
<path d="M325.796 101.772C323.578 101.772 321.581 101.24 319.807 100.175C318.032 99.0808 316.627 97.602 315.592 95.7387C314.557 93.8458 314.039 91.7311 314.039 89.3946C314.039 87.0581 314.542 84.9729 315.548 83.1392C316.553 81.2759 317.914 79.8119 319.629 78.7471C321.345 77.6824 323.267 77.15 325.397 77.15C327.023 77.15 328.487 77.4458 329.789 78.0373C331.12 78.6288 332.258 79.457 333.205 80.5217C334.181 81.5569 334.92 82.7547 335.423 84.1152C335.955 85.4462 336.222 86.851 336.222 88.3298C336.222 88.6256 336.207 88.9362 336.177 89.2615C336.148 89.5868 336.103 89.927 336.044 90.2819H315.592V87.8418H334.536L333.338 88.7735C333.515 87.0581 333.264 85.5201 332.584 84.1596C331.903 82.7695 330.927 81.6752 329.656 80.8766C328.413 80.0485 326.994 79.6344 325.397 79.6344C323.799 79.6344 322.335 80.0633 321.005 80.921C319.674 81.7491 318.624 82.9026 317.855 84.3814C317.086 85.8307 316.731 87.5165 316.79 89.439C316.731 91.3614 317.1 93.062 317.899 94.5409C318.698 96.0197 319.792 97.1879 321.182 98.0456C322.572 98.8738 324.11 99.2878 325.796 99.2878C327.511 99.2878 329.005 98.8886 330.277 98.09C331.548 97.2619 332.584 96.1676 333.382 94.807L335.645 96.0049C335.112 97.0992 334.358 98.09 333.382 98.9773C332.406 99.835 331.267 100.515 329.966 101.018C328.694 101.521 327.304 101.772 325.796 101.772Z" fill="white"/>
<path d="M298.241 101.772C296.023 101.772 294.027 101.24 292.252 100.175C290.478 99.0808 289.073 97.602 288.038 95.7387C287.002 93.8458 286.485 91.7311 286.485 89.3946C286.485 87.0581 286.988 84.9729 287.993 83.1392C288.999 81.2759 290.359 79.8119 292.075 78.7471C293.79 77.6824 295.713 77.15 297.842 77.15C299.469 77.15 300.933 77.4458 302.234 78.0373C303.565 78.6288 304.704 79.457 305.65 80.5217C306.626 81.5569 307.366 82.7547 307.868 84.1152C308.401 85.4462 308.667 86.851 308.667 88.3298C308.667 88.6256 308.652 88.9362 308.623 89.2615C308.593 89.5868 308.549 89.927 308.49 90.2819H288.038V87.8418H306.981L305.783 88.7735C305.961 87.0581 305.709 85.5201 305.029 84.1596C304.349 82.7695 303.373 81.6752 302.101 80.8766C300.859 80.0485 299.439 79.6344 297.842 79.6344C296.245 79.6344 294.781 80.0633 293.45 80.921C292.119 81.7491 291.069 82.9026 290.3 84.3814C289.531 85.8307 289.176 87.5165 289.235 89.439C289.176 91.3614 289.546 93.062 290.345 94.5409C291.143 96.0197 292.237 97.1879 293.628 98.0456C295.018 98.8738 296.556 99.2878 298.241 99.2878C299.957 99.2878 301.45 98.8886 302.722 98.09C303.994 97.2619 305.029 96.1676 305.828 94.807L308.09 96.0049C307.558 97.0992 306.804 98.09 305.828 98.9773C304.852 99.835 303.713 100.515 302.412 101.018C301.14 101.521 299.75 101.772 298.241 101.772Z" fill="white"/>
<path d="M262.073 101.24V77.6824H264.735V82.4294L264.069 82.2519C264.602 80.6844 265.548 79.4422 266.908 78.5253C268.299 77.6085 269.91 77.15 271.744 77.15C273.371 77.15 274.85 77.5197 276.181 78.2591C277.512 78.9985 278.576 80.0337 279.375 81.3646C280.173 82.666 280.573 84.1596 280.573 85.8454V101.24H277.911V86.5996C277.911 85.18 277.63 83.9673 277.068 82.9618C276.506 81.9266 275.722 81.1428 274.717 80.6104C273.741 80.0485 272.617 79.7675 271.345 79.7675C270.014 79.7675 268.846 80.0781 267.84 80.6992C266.835 81.3203 266.066 82.178 265.533 83.2723C265.001 84.3666 264.735 85.6236 264.735 87.0433V101.24H262.073Z" fill="white"/>
<path d="M252.108 101.24V77.6825H254.77V101.24H252.108ZM252.108 73.0686V68.1885H254.77V73.0686H252.108Z" fill="white"/>
<path d="M233.693 111C232.126 111 230.677 110.749 229.346 110.246C228.015 109.743 226.861 109.063 225.885 108.205C224.909 107.347 224.14 106.371 223.578 105.277L225.974 103.99C226.625 105.262 227.601 106.312 228.902 107.14C230.233 107.968 231.815 108.383 233.649 108.383C235.128 108.383 236.503 108.087 237.775 107.495C239.047 106.933 240.082 106.046 240.88 104.833C241.709 103.65 242.123 102.157 242.123 100.353V94.3634L242.611 94.9845C241.783 96.8182 240.526 98.2675 238.84 99.3322C237.154 100.367 235.276 100.885 233.205 100.885C231.017 100.885 229.05 100.353 227.305 99.2878C225.56 98.2231 224.185 96.7887 223.179 94.9845C222.203 93.1803 221.715 91.184 221.715 88.9953C221.715 86.8067 222.203 84.8251 223.179 83.0505C224.185 81.2463 225.545 79.8119 227.261 78.7471C229.006 77.6824 230.987 77.15 233.205 77.15C235.276 77.15 237.139 77.6676 238.795 78.7028C240.452 79.7084 241.723 81.0689 242.611 82.7843L242.123 83.6272V77.6824H244.785V100.353C244.785 102.393 244.311 104.212 243.365 105.809C242.418 107.436 241.102 108.708 239.416 109.625C237.76 110.542 235.853 111 233.693 111ZM233.294 98.2231C234.95 98.2231 236.429 97.809 237.731 96.9809C239.062 96.1528 240.112 95.0437 240.88 93.6536C241.649 92.2339 242.034 90.6812 242.034 88.9953C242.034 87.3095 241.649 85.7715 240.88 84.3814C240.112 82.9913 239.062 81.8822 237.731 81.0541C236.429 80.226 234.95 79.8119 233.294 79.8119C231.608 79.8119 230.1 80.226 228.769 81.0541C227.438 81.8822 226.403 82.9913 225.664 84.3814C224.924 85.7715 224.554 87.3095 224.554 88.9953C224.554 90.6812 224.924 92.2339 225.664 93.6536C226.403 95.0437 227.423 96.1528 228.725 96.9809C230.056 97.809 231.579 98.2231 233.294 98.2231Z" fill="white"/>
<path d="M197.302 101.24V77.6824H199.964V82.4294L199.299 82.2519C199.831 80.6844 200.778 79.4422 202.138 78.5253C203.528 77.6085 205.14 77.15 206.974 77.15C208.601 77.15 210.079 77.5197 211.41 78.2591C212.741 78.9985 213.806 80.0337 214.605 81.3646C215.403 82.666 215.802 84.1596 215.802 85.8454V101.24H213.141V86.5996C213.141 85.18 212.86 83.9673 212.298 82.9618C211.736 81.9266 210.952 81.1428 209.946 80.6104C208.97 80.0485 207.846 79.7675 206.575 79.7675C205.244 79.7675 204.075 80.0781 203.07 80.6992C202.064 81.3203 201.295 82.178 200.763 83.2723C200.231 84.3666 199.964 85.6236 199.964 87.0433V101.24H197.302Z" fill="white"/>
<path d="M180.529 101.772C178.311 101.772 176.314 101.24 174.54 100.175C172.765 99.0808 171.36 97.602 170.325 95.7387C169.29 93.8458 168.772 91.7311 168.772 89.3946C168.772 87.0581 169.275 84.9729 170.281 83.1392C171.286 81.2759 172.647 79.8119 174.362 78.7471C176.078 77.6824 178 77.15 180.13 77.15C181.756 77.15 183.22 77.4458 184.522 78.0373C185.853 78.6288 186.991 79.457 187.938 80.5217C188.914 81.5569 189.653 82.7547 190.156 84.1152C190.688 85.4462 190.955 86.851 190.955 88.3298C190.955 88.6256 190.94 88.9362 190.91 89.2615C190.881 89.5868 190.836 89.927 190.777 90.2819H170.325V87.8418H189.269L188.071 88.7735C188.248 87.0581 187.997 85.5201 187.317 84.1596C186.637 82.7695 185.66 81.6752 184.389 80.8766C183.147 80.0485 181.727 79.6344 180.13 79.6344C178.533 79.6344 177.069 80.0633 175.738 80.921C174.407 81.7491 173.357 82.9026 172.588 84.3814C171.819 85.8307 171.464 87.5165 171.523 89.439C171.464 91.3614 171.834 93.062 172.632 94.5409C173.431 96.0197 174.525 97.1879 175.915 98.0456C177.305 98.8738 178.843 99.2878 180.529 99.2878C182.244 99.2878 183.738 98.8886 185.01 98.09C186.282 97.2619 187.317 96.1676 188.115 94.807L190.378 96.0049C189.846 97.0992 189.091 98.09 188.115 98.9773C187.139 99.835 186.001 100.515 184.699 101.018C183.427 101.521 182.037 101.772 180.529 101.772Z" fill="white"/>
<path d="M137.869 101.772C136.183 101.772 134.66 101.447 133.299 100.796C131.968 100.116 130.904 99.1843 130.105 98.0013C129.336 96.7887 128.952 95.3838 128.952 93.7867C128.952 92.4558 129.188 91.2875 129.661 90.2819C130.164 89.2467 130.785 88.3151 131.525 87.4869C132.264 86.6588 133.063 85.9194 133.92 85.2687C134.778 84.618 135.592 84.0265 136.361 83.4941L138.135 82.2963C139.141 81.6161 140.058 80.921 140.886 80.2112C141.743 79.5014 142.438 78.7324 142.971 77.9042C143.503 77.0465 143.769 76.1001 143.769 75.0649C143.769 73.7044 143.311 72.5805 142.394 71.6932C141.507 70.8059 140.412 70.3623 139.111 70.3623C137.751 70.3623 136.627 70.8207 135.739 71.7376C134.882 72.6249 134.453 73.7488 134.453 75.1093C134.453 76.0557 134.66 76.9578 135.074 77.8155C135.518 78.6732 136.065 79.4718 136.715 80.2112C137.366 80.9506 138.017 81.6604 138.667 82.3407L157.079 101.24H153.175L136.449 84.2927C135.769 83.5829 135.044 82.7843 134.275 81.897C133.536 80.9802 132.9 79.9746 132.368 78.8803C131.835 77.7564 131.569 76.5289 131.569 75.198C131.569 73.7192 131.894 72.4178 132.545 71.2939C133.225 70.17 134.128 69.2828 135.251 68.6321C136.405 67.9814 137.691 67.6561 139.111 67.6561C140.472 67.6561 141.714 67.9814 142.838 68.6321C143.991 69.2532 144.908 70.1257 145.588 71.2496C146.269 72.3439 146.609 73.6157 146.609 75.0649C146.609 76.5733 146.254 77.9042 145.544 79.0577C144.864 80.1816 144.006 81.1724 142.971 82.0301C141.965 82.8878 140.974 83.6568 139.998 84.3371L138.268 85.4905C137.203 86.2595 136.183 87.0433 135.207 87.8419C134.261 88.6108 133.477 89.4685 132.856 90.415C132.264 91.3614 131.968 92.4705 131.968 93.7423C131.968 95.3986 132.516 96.6999 133.61 97.6464C134.734 98.5928 136.168 99.066 137.913 99.066C139.126 99.066 140.176 98.859 141.063 98.4449C141.98 98.0309 142.779 97.4985 143.459 96.8478C144.169 96.1676 144.805 95.443 145.366 94.674C145.928 93.8754 146.446 93.1064 146.919 92.367L152.021 84.7807H155.348L149.448 93.7423C148.975 94.4817 148.398 95.3099 147.718 96.2267C147.038 97.1436 146.239 98.0309 145.322 98.8886C144.435 99.7167 143.37 100.412 142.128 100.974C140.915 101.506 139.496 101.772 137.869 101.772Z" fill="white"/>
</svg>
