<svg width="415" height="111" viewBox="0 0 415 111" fill="none" xmlns="http://www.w3.org/2000/svg">
<path d="M62.4089 108.129V1.69482H89.1989C94.7625 1.69482 98.915 2.78335 101.656 4.96041C104.398 7.13747 106.192 10.3224 107.039 14.5153C107.926 18.7081 108.369 23.8283 108.369 29.8757C108.369 36.1246 107.724 41.0432 106.434 44.6313C105.184 48.1791 102.604 50.5577 98.6933 51.7672C100.548 52.0897 102.1 52.8557 103.35 54.0652C104.6 55.2344 105.607 56.968 106.373 59.266C107.139 61.5237 107.684 64.4466 108.006 68.0347C108.369 71.5825 108.551 75.9366 108.551 81.097C108.551 81.5002 108.551 82.629 108.551 84.4836C108.551 86.3381 108.551 88.5353 108.551 91.0752C108.591 93.5748 108.631 96.0744 108.671 98.574C108.712 101.074 108.772 103.21 108.853 104.984C108.934 106.758 109.034 107.806 109.155 108.129H92.9482C92.8273 107.927 92.7265 106.899 92.6459 105.045C92.6056 103.15 92.5451 100.751 92.4645 97.8483C92.4241 94.9456 92.3838 91.8211 92.3435 88.4748C92.3435 85.1286 92.3435 81.8429 92.3435 78.6176C92.3435 75.352 92.3435 72.4694 92.3435 69.9698C92.3435 66.7849 92.1016 64.3861 91.6178 62.7734C91.1743 61.1205 90.3277 59.9715 89.0779 59.3264C87.8684 58.6814 86.1147 58.2984 83.8167 58.1774L78.6159 57.8751V108.129H62.4089ZM78.6764 45.2965H85.1471C87.1226 45.2965 88.6143 44.853 89.6222 43.9661C90.6704 43.0791 91.3759 41.4463 91.7388 39.0677C92.1419 36.689 92.3435 33.2622 92.3435 28.7871V28.1219C92.3435 24.3725 92.1621 21.4899 91.7992 19.4741C91.4364 17.4584 90.6704 16.0675 89.5012 15.3014C88.3724 14.5354 86.5985 14.1524 84.1795 14.1524H78.6764V45.2965Z" fill="#101010"/>
<path d="M0 108.129L15.1789 1.69482H36.5867L52.7332 108.129H37.6148L35.0749 89.1401H17.9003L15.6023 108.129H0ZM19.4726 76.1382H33.3816L26.2457 22.6793H26.0038L19.4726 76.1382Z" fill="#101010"/>
<path d="M399.506 49.3646C396.098 49.3646 393.467 48.3941 391.613 46.4532C389.801 44.5122 388.895 41.7734 388.895 38.2365V19.8623H382.555V14.1042H383.849C385.402 14.1042 386.631 13.6297 387.537 12.6808C388.442 11.7319 388.895 10.4811 388.895 8.92832V6.0816H394.912V14.1042H402.741V19.8623H394.912V38.0424C394.912 39.207 395.085 40.2206 395.43 41.0832C395.818 41.9459 396.443 42.636 397.306 43.1536C398.169 43.628 399.312 43.8653 400.735 43.8653C401.037 43.8653 401.404 43.8437 401.835 43.8006C402.309 43.7574 402.741 43.7143 403.129 43.6712V48.9764C402.568 49.1058 401.943 49.1921 401.253 49.2352C400.563 49.3215 399.98 49.3646 399.506 49.3646Z" fill="#101010"/>
<path d="M362.529 49.7528C359.121 49.7528 356.08 48.9549 353.406 47.359C350.775 45.7631 348.705 43.5849 347.195 40.8245C345.685 38.064 344.931 34.9585 344.931 31.508C344.931 28.0143 345.685 24.9088 347.195 22.1914C348.705 19.4741 350.775 17.3175 353.406 15.7216C356.08 14.1258 359.121 13.3278 362.529 13.3278C364.815 13.3278 366.95 13.7376 368.934 14.5571C370.918 15.3766 372.665 16.4765 374.174 17.8567C375.684 19.2369 376.784 20.8544 377.474 22.709L372.104 25.297C371.284 23.4854 370.033 22.0189 368.351 20.8975C366.669 19.7329 364.728 19.1506 362.529 19.1506C360.415 19.1506 358.496 19.6898 356.77 20.7681C355.088 21.8464 353.751 23.3129 352.759 25.1676C351.767 27.0222 351.271 29.1573 351.271 31.5727C351.271 33.9018 351.767 36.0153 352.759 37.9131C353.751 39.7677 355.088 41.2342 356.77 42.3125C358.496 43.3908 360.415 43.93 362.529 43.93C364.728 43.93 366.669 43.3693 368.351 42.2478C370.033 41.0833 371.284 39.5521 372.104 37.6543L377.474 40.3716C376.784 42.1831 375.684 43.8006 374.174 45.2239C372.665 46.6042 370.918 47.704 368.934 48.5236C366.95 49.3431 364.815 49.7528 362.529 49.7528Z" fill="#101010"/>
<path d="M322.658 49.7528C319.294 49.7528 316.296 48.9549 313.665 47.359C311.034 45.7631 308.964 43.5849 307.454 40.8245C305.944 38.0209 305.189 34.8938 305.189 31.4433C305.189 27.9496 305.923 24.8441 307.389 22.1267C308.899 19.4094 310.926 17.2744 313.471 15.7216C316.059 14.1258 318.949 13.3278 322.14 13.3278C324.728 13.3278 327.014 13.8023 328.998 14.7512C331.026 15.6569 332.729 16.9078 334.109 18.5037C335.533 20.0564 336.611 21.8464 337.344 23.8736C338.121 25.8577 338.509 27.928 338.509 30.0846C338.509 30.5591 338.466 31.0982 338.38 31.7021C338.336 32.2628 338.272 32.8019 338.185 33.3195H309.589V28.1437H334.692L331.845 30.4728C332.233 28.2299 332.018 26.2243 331.198 24.4559C330.379 22.6875 329.171 21.2857 327.575 20.2505C325.979 19.2153 324.168 18.6978 322.14 18.6978C320.113 18.6978 318.258 19.2153 316.576 20.2505C314.894 21.2857 313.579 22.7737 312.63 24.7147C311.724 26.6125 311.357 28.8769 311.53 31.508C311.357 34.0528 311.746 36.2956 312.694 38.2366C313.686 40.1344 315.067 41.6224 316.835 42.7007C318.647 43.7359 320.609 44.2535 322.723 44.2535C325.052 44.2535 327.014 43.7143 328.61 42.636C330.206 41.5577 331.5 40.1775 332.492 38.4954L337.538 41.0833C336.848 42.6792 335.77 44.1456 334.304 45.4827C332.88 46.7767 331.176 47.8119 329.192 48.5882C327.251 49.3646 325.073 49.7528 322.658 49.7528Z" fill="#101010"/>
<path d="M296.077 49.3646C292.67 49.3646 290.039 48.3941 288.184 46.4532C286.373 44.5122 285.467 41.7734 285.467 38.2365V19.8623H279.126V14.1042H280.42C281.973 14.1042 283.202 13.6297 284.108 12.6808C285.014 11.7319 285.467 10.4811 285.467 8.92832V6.0816H291.484V14.1042H299.312V19.8623H291.484V38.0424C291.484 39.207 291.656 40.2206 292.001 41.0832C292.39 41.9459 293.015 42.636 293.878 43.1536C294.74 43.628 295.883 43.8653 297.307 43.8653C297.609 43.8653 297.975 43.8437 298.406 43.8006C298.881 43.7574 299.312 43.7143 299.7 43.6712V48.9764C299.14 49.1058 298.514 49.1921 297.824 49.2352C297.134 49.3215 296.552 49.3646 296.077 49.3646Z" fill="#101010"/>
<path d="M266.556 48.9764V14.1042H272.573V48.9764H266.556ZM266.556 8.54013V0.776367H272.573V8.54013H266.556Z" fill="#101010"/>
<path d="M229.026 48.9764V0H235.043V20.8975L233.943 20.3152C234.805 18.1154 236.186 16.4117 238.083 15.204C240.024 13.9532 242.289 13.3278 244.877 13.3278C247.378 13.3278 249.6 13.8885 251.541 15.0099C253.525 16.1314 255.077 17.6841 256.199 19.6682C257.363 21.6523 257.946 23.8951 257.946 26.3968V48.9764H251.864V28.3377C251.864 26.3968 251.497 24.7578 250.764 23.4207C250.074 22.0836 249.104 21.0484 247.853 20.3152C246.602 19.5388 245.157 19.1506 243.518 19.1506C241.922 19.1506 240.477 19.5388 239.183 20.3152C237.889 21.0484 236.876 22.1052 236.142 23.4854C235.409 24.8225 235.043 26.4399 235.043 28.3377V48.9764H229.026Z" fill="#101010"/>
<path d="M206.217 49.7528C202.81 49.7528 199.769 48.9549 197.095 47.359C194.464 45.7631 192.393 43.5849 190.884 40.8245C189.374 38.064 188.619 34.9585 188.619 31.508C188.619 28.0143 189.374 24.9088 190.884 22.1914C192.393 19.4741 194.464 17.3175 197.095 15.7216C199.769 14.1258 202.81 13.3278 206.217 13.3278C208.503 13.3278 210.638 13.7376 212.622 14.5571C214.606 15.3766 216.353 16.4765 217.863 17.8567C219.372 19.2369 220.472 20.8544 221.162 22.709L215.792 25.297C214.973 23.4854 213.722 22.0189 212.04 20.8975C210.358 19.7329 208.417 19.1506 206.217 19.1506C204.104 19.1506 202.184 19.6898 200.459 20.7681C198.777 21.8464 197.44 23.3129 196.448 25.1676C195.456 27.0222 194.96 29.1573 194.96 31.5727C194.96 33.9018 195.456 36.0153 196.448 37.9131C197.44 39.7677 198.777 41.2342 200.459 42.3125C202.184 43.3908 204.104 43.93 206.217 43.93C208.417 43.93 210.358 43.3693 212.04 42.2478C213.722 41.0833 214.973 39.5521 215.792 37.6543L221.162 40.3716C220.472 42.1831 219.372 43.8006 217.863 45.2239C216.353 46.6042 214.606 47.704 212.622 48.5236C210.638 49.3431 208.503 49.7528 206.217 49.7528Z" fill="#101010"/>
<path d="M167.424 48.9764V14.1041H173.311V20.5092L172.664 19.6035C173.484 17.6194 174.734 16.1529 176.417 15.204C178.099 14.212 180.148 13.7159 182.563 13.7159H184.698V19.4094H181.657C179.199 19.4094 177.215 20.1857 175.705 21.7385C174.195 23.2481 173.44 25.4047 173.44 28.2083V48.9764H167.424Z" fill="#101010"/>
<path d="M140.432 49.7528C138.146 49.7528 136.119 49.3431 134.35 48.5236C132.625 47.6609 131.266 46.4963 130.274 45.0299C129.282 43.5202 128.786 41.795 128.786 39.854C128.786 37.9993 129.174 36.3388 129.951 34.8723C130.77 33.3626 132.021 32.0902 133.703 31.0551C135.428 30.0199 137.585 29.2867 140.173 28.8553L153.113 26.7203V31.7668L141.532 33.7077C139.289 34.0959 137.65 34.8076 136.615 35.8427C135.623 36.8779 135.127 38.1503 135.127 39.6599C135.127 41.0833 135.687 42.2694 136.809 43.2183C137.973 44.1672 139.418 44.6417 141.143 44.6417C143.343 44.6417 145.241 44.1888 146.837 43.283C148.476 42.3341 149.748 41.0617 150.654 39.4658C151.603 37.8699 152.077 36.1015 152.077 34.1606V25.297C152.077 23.3991 151.366 21.868 149.942 20.7034C148.562 19.4957 146.729 18.8918 144.443 18.8918C142.459 18.8918 140.691 19.4094 139.138 20.4446C137.628 21.4366 136.507 22.7737 135.774 24.4559L130.533 21.7386C131.18 20.1427 132.215 18.7193 133.638 17.4685C135.062 16.1745 136.722 15.1609 138.62 14.4277C140.518 13.6944 142.502 13.3278 144.572 13.3278C147.247 13.3278 149.597 13.8454 151.625 14.8806C153.652 15.8726 155.226 17.2744 156.347 19.0859C157.512 20.8544 158.094 22.9247 158.094 25.297V48.9764H152.207V42.3772L153.307 42.7654C152.573 44.1456 151.581 45.3533 150.331 46.3885C149.08 47.4237 147.613 48.2432 145.931 48.847C144.249 49.4509 142.416 49.7528 140.432 49.7528Z" fill="#101010"/>
<path d="M403.043 110.495C401.476 110.495 400.026 110.244 398.695 109.741C397.364 109.238 396.211 108.558 395.235 107.7C394.259 106.842 393.49 105.866 392.928 104.772L395.324 103.485C395.974 104.757 396.95 105.807 398.252 106.635C399.583 107.463 401.165 107.878 402.999 107.878C404.478 107.878 405.853 107.582 407.125 106.99C408.396 106.428 409.432 105.541 410.23 104.328C411.058 103.145 411.472 101.652 411.472 99.8476V93.8584L411.96 94.4795C411.132 96.3132 409.875 97.7625 408.189 98.8272C406.503 99.8624 404.625 100.38 402.555 100.38C400.366 100.38 398.4 99.8476 396.655 98.7828C394.91 97.7181 393.534 96.2836 392.529 94.4795C391.553 92.6753 391.065 90.6789 391.065 88.4903C391.065 86.3017 391.553 84.3201 392.529 82.5455C393.534 80.7413 394.895 79.3069 396.61 78.2421C398.355 77.1774 400.337 76.645 402.555 76.645C404.625 76.645 406.489 77.1626 408.145 78.1978C409.801 79.2034 411.073 80.5639 411.96 82.2793L411.472 83.1222V77.1774H414.134V99.8476C414.134 101.888 413.661 103.707 412.714 105.304C411.768 106.931 410.452 108.203 408.766 109.12C407.11 110.037 405.202 110.495 403.043 110.495ZM402.644 97.7181C404.3 97.7181 405.779 97.304 407.08 96.4759C408.411 95.6478 409.461 94.5386 410.23 93.1486C410.999 91.7289 411.384 90.1762 411.384 88.4903C411.384 86.8045 410.999 85.2665 410.23 83.8764C409.461 82.4863 408.411 81.3772 407.08 80.5491C405.779 79.721 404.3 79.3069 402.644 79.3069C400.958 79.3069 399.45 79.721 398.119 80.5491C396.788 81.3772 395.753 82.4863 395.013 83.8764C394.274 85.2665 393.904 86.8045 393.904 88.4903C393.904 90.1762 394.274 91.7289 395.013 93.1486C395.753 94.5386 396.773 95.6478 398.074 96.4759C399.405 97.304 400.928 97.7181 402.644 97.7181Z" fill="#101010"/>
<path d="M366.652 100.735V77.1774H369.314V81.9244L368.648 81.7469C369.181 80.1794 370.127 78.9372 371.488 78.0203C372.878 77.1035 374.49 76.645 376.324 76.645C377.95 76.645 379.429 77.0147 380.76 77.7541C382.091 78.4935 383.156 79.5287 383.954 80.8596C384.753 82.161 385.152 83.6546 385.152 85.3404V100.735H382.49V86.0946C382.49 84.675 382.209 83.4623 381.647 82.4568C381.085 81.4216 380.302 80.6378 379.296 80.1054C378.32 79.5435 377.196 79.2625 375.924 79.2625C374.593 79.2625 373.425 79.5731 372.419 80.1942C371.414 80.8153 370.645 81.673 370.113 82.7673C369.58 83.8616 369.314 85.1186 369.314 86.5383V100.735H366.652Z" fill="#101010"/>
<path d="M356.688 100.735V77.1774H359.349V100.735H356.688ZM356.688 72.5636V67.6835H359.349V72.5636H356.688Z" fill="#101010"/>
<path d="M341.654 100.735V77.1774H344.316V81.5694L343.828 81.1702C344.33 79.8392 345.188 78.7893 346.401 78.0203C347.643 77.2513 349.107 76.8668 350.793 76.8668H352.301V79.5287H350.482C348.56 79.5287 347.051 80.1498 345.957 81.392C344.863 82.6046 344.316 84.2461 344.316 86.3164V100.735H341.654Z" fill="#101010"/>
<path d="M324.88 101.267C322.662 101.267 320.665 100.735 318.891 99.6701C317.116 98.5758 315.711 97.097 314.676 95.2337C313.641 93.3408 313.123 91.2261 313.123 88.8896C313.123 86.5531 313.626 84.4679 314.632 82.6342C315.637 80.7709 316.998 79.3069 318.713 78.2421C320.429 77.1774 322.351 76.645 324.481 76.645C326.107 76.645 327.571 76.9408 328.873 77.5323C330.204 78.1238 331.342 78.952 332.289 80.0167C333.265 81.0519 334.004 82.2497 334.507 83.6102C335.039 84.9412 335.305 86.346 335.305 87.8248C335.305 88.1206 335.291 88.4312 335.261 88.7565C335.232 89.0818 335.187 89.422 335.128 89.7769H314.676V87.3368H333.62L332.422 88.2685C332.599 86.5531 332.348 85.0151 331.668 83.6546C330.987 82.2645 330.011 81.1702 328.74 80.3716C327.497 79.5435 326.078 79.1294 324.481 79.1294C322.883 79.1294 321.419 79.5583 320.089 80.416C318.758 81.2441 317.708 82.3976 316.939 83.8764C316.17 85.3256 315.815 87.0115 315.874 88.9339C315.815 90.8564 316.184 92.557 316.983 94.0359C317.782 95.5147 318.876 96.6829 320.266 97.5406C321.656 98.3688 323.194 98.7828 324.88 98.7828C326.595 98.7828 328.089 98.3836 329.361 97.585C330.632 96.7569 331.668 95.6625 332.466 94.302L334.729 95.4999C334.196 96.5942 333.442 97.585 332.466 98.4723C331.49 99.33 330.351 100.01 329.05 100.513C327.778 101.016 326.388 101.267 324.88 101.267Z" fill="#101010"/>
<path d="M297.325 101.267C295.107 101.267 293.111 100.735 291.336 99.6701C289.562 98.5758 288.157 97.097 287.122 95.2337C286.086 93.3408 285.569 91.2261 285.569 88.8896C285.569 86.5531 286.072 84.4679 287.077 82.6342C288.083 80.7709 289.443 79.3069 291.159 78.2421C292.874 77.1774 294.797 76.645 296.926 76.645C298.553 76.645 300.017 76.9408 301.318 77.5323C302.649 78.1238 303.788 78.952 304.734 80.0167C305.71 81.0519 306.45 82.2497 306.952 83.6102C307.485 84.9412 307.751 86.346 307.751 87.8248C307.751 88.1206 307.736 88.4312 307.707 88.7565C307.677 89.0818 307.633 89.422 307.574 89.7769H287.122V87.3368H306.065L304.867 88.2685C305.045 86.5531 304.793 85.0151 304.113 83.6546C303.433 82.2645 302.457 81.1702 301.185 80.3716C299.943 79.5435 298.523 79.1294 296.926 79.1294C295.329 79.1294 293.865 79.5583 292.534 80.416C291.203 81.2441 290.153 82.3976 289.384 83.8764C288.615 85.3256 288.26 87.0115 288.319 88.9339C288.26 90.8564 288.63 92.557 289.429 94.0359C290.227 95.5147 291.321 96.6829 292.712 97.5406C294.102 98.3688 295.64 98.7828 297.325 98.7828C299.041 98.7828 300.534 98.3836 301.806 97.585C303.078 96.7569 304.113 95.6625 304.912 94.302L307.174 95.4999C306.642 96.5942 305.888 97.585 304.912 98.4723C303.936 99.33 302.797 100.01 301.496 100.513C300.224 101.016 298.834 101.267 297.325 101.267Z" fill="#101010"/>
<path d="M261.157 100.735V77.1774H263.819V81.9244L263.153 81.7469C263.686 80.1794 264.632 78.9372 265.992 78.0203C267.383 77.1035 268.994 76.645 270.828 76.645C272.455 76.645 273.934 77.0147 275.265 77.7541C276.596 78.4935 277.66 79.5287 278.459 80.8596C279.257 82.161 279.657 83.6546 279.657 85.3404V100.735H276.995V86.0946C276.995 84.675 276.714 83.4623 276.152 82.4568C275.59 81.4216 274.806 80.6378 273.801 80.1054C272.825 79.5435 271.701 79.2625 270.429 79.2625C269.098 79.2625 267.93 79.5731 266.924 80.1942C265.919 80.8153 265.15 81.673 264.617 82.7673C264.085 83.8616 263.819 85.1186 263.819 86.5383V100.735H261.157Z" fill="#101010"/>
<path d="M251.192 100.735V77.1774H253.854V100.735H251.192ZM251.192 72.5636V67.6835H253.854V72.5636H251.192Z" fill="#101010"/>
<path d="M232.777 110.495C231.21 110.495 229.761 110.244 228.43 109.741C227.099 109.238 225.945 108.558 224.969 107.7C223.993 106.842 223.224 105.866 222.662 104.772L225.058 103.485C225.709 104.757 226.685 105.807 227.986 106.635C229.317 107.463 230.899 107.878 232.733 107.878C234.212 107.878 235.587 107.582 236.859 106.99C238.131 106.428 239.166 105.541 239.964 104.328C240.793 103.145 241.207 101.652 241.207 99.8476V93.8584L241.695 94.4795C240.867 96.3132 239.61 97.7625 237.924 98.8272C236.238 99.8624 234.36 100.38 232.289 100.38C230.101 100.38 228.134 99.8476 226.389 98.7828C224.644 97.7181 223.269 96.2836 222.263 94.4795C221.287 92.6753 220.799 90.6789 220.799 88.4903C220.799 86.3017 221.287 84.3201 222.263 82.5455C223.269 80.7413 224.629 79.3069 226.345 78.2421C228.09 77.1774 230.071 76.645 232.289 76.645C234.36 76.645 236.223 77.1626 237.879 78.1978C239.536 79.2034 240.807 80.5639 241.695 82.2793L241.207 83.1222V77.1774H243.869V99.8476C243.869 101.888 243.395 103.707 242.449 105.304C241.502 106.931 240.186 108.203 238.5 109.12C236.844 110.037 234.937 110.495 232.777 110.495ZM232.378 97.7181C234.034 97.7181 235.513 97.304 236.815 96.4759C238.146 95.6478 239.195 94.5386 239.964 93.1486C240.733 91.7289 241.118 90.1762 241.118 88.4903C241.118 86.8045 240.733 85.2665 239.964 83.8764C239.195 82.4863 238.146 81.3772 236.815 80.5491C235.513 79.721 234.034 79.3069 232.378 79.3069C230.692 79.3069 229.184 79.721 227.853 80.5491C226.522 81.3772 225.487 82.4863 224.747 83.8764C224.008 85.2665 223.638 86.8045 223.638 88.4903C223.638 90.1762 224.008 91.7289 224.747 93.1486C225.487 94.5386 226.507 95.6478 227.809 96.4759C229.14 97.304 230.663 97.7181 232.378 97.7181Z" fill="#101010"/>
<path d="M196.386 100.735V77.1774H199.048V81.9244L198.383 81.7469C198.915 80.1794 199.862 78.9372 201.222 78.0203C202.612 77.1035 204.224 76.645 206.058 76.645C207.685 76.645 209.163 77.0147 210.494 77.7541C211.825 78.4935 212.89 79.5287 213.689 80.8596C214.487 82.161 214.886 83.6546 214.886 85.3404V100.735H212.225V86.0946C212.225 84.675 211.944 83.4623 211.382 82.4568C210.82 81.4216 210.036 80.6378 209.03 80.1054C208.054 79.5435 206.93 79.2625 205.659 79.2625C204.328 79.2625 203.159 79.5731 202.154 80.1942C201.148 80.8153 200.379 81.673 199.847 82.7673C199.315 83.8616 199.048 85.1186 199.048 86.5383V100.735H196.386Z" fill="#101010"/>
<path d="M179.613 101.267C177.395 101.267 175.398 100.735 173.624 99.6701C171.849 98.5758 170.444 97.097 169.409 95.2337C168.374 93.3408 167.856 91.2261 167.856 88.8896C167.856 86.5531 168.359 84.4679 169.365 82.6342C170.37 80.7709 171.731 79.3069 173.446 78.2421C175.162 77.1774 177.084 76.645 179.214 76.645C180.84 76.645 182.304 76.9408 183.606 77.5323C184.937 78.1238 186.075 78.952 187.022 80.0167C187.998 81.0519 188.737 82.2497 189.24 83.6102C189.772 84.9412 190.039 86.346 190.039 87.8248C190.039 88.1206 190.024 88.4312 189.994 88.7565C189.965 89.0818 189.92 89.422 189.861 89.7769H169.409V87.3368H188.353L187.155 88.2685C187.332 86.5531 187.081 85.0151 186.401 83.6546C185.72 82.2645 184.744 81.1702 183.473 80.3716C182.23 79.5435 180.811 79.1294 179.214 79.1294C177.617 79.1294 176.153 79.5583 174.822 80.416C173.491 81.2441 172.441 82.3976 171.672 83.8764C170.903 85.3256 170.548 87.0115 170.607 88.9339C170.548 90.8564 170.918 92.557 171.716 94.0359C172.515 95.5147 173.609 96.6829 174.999 97.5406C176.389 98.3688 177.927 98.7828 179.613 98.7828C181.328 98.7828 182.822 98.3836 184.094 97.585C185.366 96.7569 186.401 95.6625 187.199 94.302L189.462 95.4999C188.93 96.5942 188.175 97.585 187.199 98.4723C186.223 99.33 185.085 100.01 183.783 100.513C182.511 101.016 181.121 101.267 179.613 101.267Z" fill="#101010"/>
<path d="M136.953 101.267C135.267 101.267 133.744 100.942 132.383 100.291C131.052 99.611 129.988 98.6793 129.189 97.4963C128.42 96.2837 128.036 94.8788 128.036 93.2817C128.036 91.9507 128.272 90.7825 128.745 89.7769C129.248 88.7417 129.869 87.8101 130.609 86.9819C131.348 86.1538 132.147 85.4144 133.004 84.7637C133.862 84.113 134.676 83.5215 135.444 82.9891L137.219 81.7913C138.225 81.1111 139.142 80.416 139.97 79.7062C140.827 78.9963 141.522 78.2274 142.055 77.3992C142.587 76.5415 142.853 75.5951 142.853 74.5599C142.853 73.1994 142.395 72.0755 141.478 71.1882C140.591 70.3009 139.496 69.8573 138.195 69.8573C136.835 69.8573 135.711 70.3157 134.823 71.2326C133.966 72.1199 133.537 73.2438 133.537 74.6043C133.537 75.5507 133.744 76.4528 134.158 77.3105C134.602 78.1682 135.149 78.9668 135.799 79.7062C136.45 80.4456 137.101 81.1554 137.751 81.8357L156.163 100.735H152.259L135.533 83.7877C134.853 83.0779 134.128 82.2793 133.359 81.392C132.62 80.4752 131.984 79.4696 131.452 78.3752C130.919 77.2513 130.653 76.0239 130.653 74.693C130.653 73.2142 130.978 71.9128 131.629 70.7889C132.309 69.665 133.211 68.7778 134.335 68.1271C135.489 67.4764 136.775 67.1511 138.195 67.1511C139.556 67.1511 140.798 67.4764 141.922 68.1271C143.075 68.7482 143.992 69.6207 144.672 70.7446C145.353 71.8389 145.693 73.1107 145.693 74.5599C145.693 76.0683 145.338 77.3992 144.628 78.5527C143.948 79.6766 143.09 80.6674 142.055 81.5251C141.049 82.3828 140.058 83.1518 139.082 83.8321L137.352 84.9855C136.287 85.7545 135.267 86.5383 134.291 87.3368C133.345 88.1058 132.561 88.9635 131.94 89.91C131.348 90.8564 131.052 91.9655 131.052 93.2373C131.052 94.8936 131.6 96.1949 132.694 97.1414C133.818 98.0878 135.252 98.561 136.997 98.561C138.21 98.561 139.26 98.354 140.147 97.9399C141.064 97.5259 141.863 96.9935 142.543 96.3428C143.253 95.6626 143.889 94.9379 144.45 94.169C145.012 93.3704 145.53 92.6014 146.003 91.862L151.105 84.2757H154.432L148.532 93.2373C148.059 93.9767 147.482 94.8049 146.802 95.7217C146.122 96.6386 145.323 97.5259 144.406 98.3836C143.519 99.2117 142.454 99.9068 141.212 100.469C139.999 101.001 138.58 101.267 136.953 101.267Z" fill="#101010"/>
</svg>
